<svg width="20" height="26" viewBox="0 0 20 26" fill="none" xmlns="http://www.w3.org/2000/svg">
<g clip-path="url(#clip0_2436_2360)">
<path d="M19.3735 8.87059C17.7349 9.94118 16.7229 11.7765 16.7229 13.8157C16.7229 16.1098 18.0241 18.2 20 19.0667C19.6145 20.3922 19.0361 21.6157 18.3133 22.7373C17.253 24.3176 16.1446 25.949 14.506 25.949C12.8675 25.949 12.3855 24.9294 10.4578 24.9294C8.57831 24.9294 7.90361 26 6.36145 26C4.81928 26 3.75904 24.5216 2.55422 22.6863C0.963856 20.1373 0.0481928 17.1804 0 14.0706C0 9.02353 3.08434 6.32157 6.16867 6.32157C7.80723 6.32157 9.15663 7.44314 10.1687 7.44314C11.1325 7.44314 12.6747 6.27059 14.506 6.27059C16.4337 6.21961 18.2651 7.18824 19.3735 8.87059ZM13.6386 4.12941C14.4578 3.1098 14.8916 1.83529 14.9398 0.509804C14.9398 0.356863 14.9398 0.152941 14.8916 0C13.494 0.152941 12.1928 0.866667 11.2771 1.98824C10.4578 2.95686 9.9759 4.18039 9.92771 5.50588C9.92771 5.65882 9.92771 5.81176 9.9759 5.96471C10.0723 5.96471 10.2169 6.01569 10.3133 6.01569C11.6145 5.91373 12.8193 5.2 13.6386 4.12941Z" fill="black"/>
</g>
<defs>
<clipPath id="clip0_2436_2360">
<rect width="20" height="26" fill="white"/>
</clipPath>
</defs>
</svg>
