<svg width="18" height="18" viewBox="0 0 18 18" fill="none" xmlns="http://www.w3.org/2000/svg">
<g clip-path="url(#clip0_2436_1457)">
<path d="M5.25 18C6.07842 18 6.74999 17.3284 6.74999 16.5C6.74999 15.6716 6.07842 15 5.25 15C4.42157 15 3.75 15.6716 3.75 16.5C3.75 17.3284 4.42157 18 5.25 18Z" fill="white"/>
<path d="M12.75 18C13.5784 18 14.25 17.3284 14.25 16.5C14.25 15.6716 13.5784 15 12.75 15C11.9216 15 11.25 15.6716 11.25 16.5C11.25 17.3284 11.9216 18 12.75 18Z" fill="white"/>
<path d="M4.2405 3.75L4.04325 2.2035C3.97163 1.59652 3.67978 1.03692 3.22305 0.630778C2.76632 0.224639 2.17644 0.000196407 1.56525 0L0 0V2.25H1.56525C1.62661 2.25066 1.68554 2.27401 1.73069 2.31556C1.77584 2.35711 1.80401 2.41391 1.80975 2.475L2.93475 11.2943C3.00571 11.9017 3.29728 12.4619 3.7541 12.8686C4.21092 13.2752 4.80117 13.4999 5.41275 13.5H15.3L17.9805 3.75H4.2405ZM13.584 11.25H5.41275C5.35143 11.2495 5.29249 11.2262 5.24743 11.1846C5.20236 11.143 5.1744 11.0861 5.169 11.025L4.52775 6H15.0278L13.584 11.25Z" fill="white"/>
</g>
<defs>
<clipPath id="clip0_2436_1457">
<rect width="18" height="18" fill="white"/>
</clipPath>
</defs>
</svg>
