<svg width="46" height="51" viewBox="0 0 46 51" fill="none" xmlns="http://www.w3.org/2000/svg">
<path d="M42.4461 25.64C39.5354 37.5201 37.6836 44.0444 36.3313 47.2474C36.1718 47.625 36.0266 47.9385 35.8957 48.1967C35.6207 47.7308 35.3069 47.1353 34.9167 46.3949C34.87 46.3063 34.8222 46.2157 34.7733 46.123C34.13 44.9035 33.3444 43.4438 32.3689 42.0587C30.4229 39.2958 27.4675 36.4839 22.8887 36.4839C17.0618 36.4839 12.0177 35.214 8.48848 32.7137C5.05102 30.2785 2.88867 26.5713 2.88867 21.191C2.88867 10.4104 11.7011 2.39062 22.8887 2.39062C28.4927 2.39062 34.3361 4.56953 38.2753 8.5398C42.1395 12.4346 44.2809 18.1515 42.4461 25.64Z" stroke="#0D2612" stroke-width="4"/>
</svg>
