<svg width="28" height="28" viewBox="0 0 28 28" fill="none" xmlns="http://www.w3.org/2000/svg">
<g clip-path="url(#clip0_2436_2353)">
<path d="M28 14.0002C28 6.26816 21.732 0.000152588 14 0.000152588C6.26801 0.000152588 0 6.26816 0 14.0002C0 20.988 5.1196 26.7798 11.8125 27.8301V18.047H8.25781V14.0002H11.8125V10.9158C11.8125 7.40703 13.9026 5.4689 17.1005 5.4689C18.6322 5.4689 20.2344 5.74234 20.2344 5.74234V9.18765H18.469C16.7299 9.18765 16.1875 10.2668 16.1875 11.374V14.0002H20.0703L19.4496 18.047H16.1875V27.8301C22.8804 26.7798 28 20.988 28 14.0002Z" fill="#1877F2"/>
<path d="M19.4496 18.0469L20.0703 14H16.1875V11.3738C16.1875 10.2667 16.7299 9.1875 18.469 9.1875H20.2344V5.74219C20.2344 5.74219 18.6322 5.46875 17.1005 5.46875C13.9026 5.46875 11.8125 7.40688 11.8125 10.9156V14H8.25781V18.0469H11.8125V27.8299C12.5253 27.9418 13.2558 28 14 28C14.7442 28 15.4747 27.9418 16.1875 27.8299V18.0469H19.4496Z" fill="white"/>
</g>
<defs>
<clipPath id="clip0_2436_2353">
<rect width="28" height="28" fill="white"/>
</clipPath>
</defs>
</svg>
