<svg width="43" height="41" viewBox="0 0 43 41" fill="none" xmlns="http://www.w3.org/2000/svg">
<g clip-path="url(#clip0_642_1180)">
<path d="M19.6413 20.1239L16.5612 17.0357L12.7812 20.5498L16.6312 24.4155C17.0089 24.8017 17.4625 25.1112 17.9655 25.326C18.4685 25.5408 19.0109 25.6565 19.5608 25.6663H19.6255C20.7156 25.6633 21.7606 25.2455 22.534 24.5034L31.3208 16.0131L27.6073 12.4297L19.6413 20.1239Z" fill="#0D2612"/>
<path d="M20.9748 40.9244L20.0456 40.5238C19.3736 40.2297 3.61133 33.3181 3.61133 20.6409V9.69633C3.61143 8.63192 3.95831 7.59453 4.60282 6.73113C5.24733 5.86774 6.15678 5.22213 7.20233 4.88577L21.1113 0.408203L35.0221 4.88747C36.0679 5.22268 36.9776 5.86781 37.622 6.73114C38.2664 7.59447 38.6126 8.63205 38.6113 9.69633V20.6409C38.6113 35.0743 22.6216 40.3869 21.9408 40.6066L20.9748 40.9244ZM21.1113 5.75289L8.86133 9.69633V20.6409C8.86133 28.5346 18.2133 33.9046 21.2461 35.436C24.2946 34.2072 33.3613 29.782 33.3613 20.6409V9.69633L21.1113 5.75289Z" fill="#0D2612"/>
</g>
<defs>
<clipPath id="clip0_642_1180">
<rect width="42" height="40.5669" fill="white" transform="translate(0.111328 0.359375)"/>
</clipPath>
</defs>
</svg>
