<svg width="30" height="31" viewBox="0 0 30 31" fill="none" xmlns="http://www.w3.org/2000/svg">
<g clip-path="url(#clip0_642_1135)">
<path d="M21.4616 30.0402C21.2971 30.0412 21.134 30.0097 20.9817 29.9474C20.8294 29.8852 20.6909 29.7936 20.5741 29.6777L10.3616 19.4652C9.77952 18.8847 9.31774 18.195 9.00266 17.4357C8.68758 16.6764 8.52539 15.8623 8.52539 15.0403C8.52539 14.2182 8.68758 13.4041 9.00266 12.6448C9.31774 11.8855 9.77952 11.1958 10.3616 10.6153L20.5741 0.40277C20.6906 0.286222 20.829 0.193771 20.9813 0.130696C21.1335 0.0676207 21.2967 0.0351563 21.4616 0.0351563C21.6264 0.0351562 21.7896 0.0676207 21.9419 0.130696C22.0942 0.193771 22.2325 0.286222 22.3491 0.40277C22.4656 0.519318 22.5581 0.657681 22.6211 0.809958C22.6842 0.962236 22.7167 1.12545 22.7167 1.29027C22.7167 1.45509 22.6842 1.6183 22.6211 1.77058C22.5581 1.92286 22.4656 2.06122 22.3491 2.17777L12.1366 12.3903C11.4343 13.0934 11.0399 14.0465 11.0399 15.0403C11.0399 16.034 11.4343 16.9871 12.1366 17.6902L22.3491 27.9027C22.4662 28.0189 22.5592 28.1572 22.6227 28.3095C22.6861 28.4618 22.7188 28.6252 22.7188 28.7902C22.7188 28.9552 22.6861 29.1186 22.6227 29.271C22.5592 29.4233 22.4662 29.5615 22.3491 29.6777C22.2323 29.7936 22.0937 29.8852 21.9414 29.9474C21.7892 30.0097 21.6261 30.0412 21.4616 30.0402Z" fill="white"/>
</g>
<defs>
<clipPath id="clip0_642_1135">
<rect width="30" height="30" fill="white" transform="translate(0 0.0410156)"/>
</clipPath>
</defs>
</svg>
