<svg width="30" height="31" viewBox="0 0 30 31" fill="none" xmlns="http://www.w3.org/2000/svg">
<g clip-path="url(#clip0_642_1139)">
<path d="M8.74944 30.0402C8.58493 30.0412 8.42185 30.0097 8.26955 29.9474C8.11726 29.8852 7.97874 29.7936 7.86194 29.6777C7.74477 29.5615 7.65178 29.4233 7.58832 29.271C7.52486 29.1186 7.49219 28.9552 7.49219 28.7902C7.49219 28.6252 7.52486 28.4618 7.58832 28.3095C7.65178 28.1572 7.74477 28.0189 7.86194 27.9027L18.0744 17.6902C18.7767 16.9871 19.1711 16.034 19.1711 15.0403C19.1711 14.0465 18.7767 13.0934 18.0744 12.3903L7.86194 2.17777C7.62656 1.94239 7.49432 1.62315 7.49432 1.29027C7.49432 0.957393 7.62656 0.63815 7.86194 0.40277C8.09732 0.167391 8.41656 0.0351563 8.74944 0.0351562C9.08231 0.0351562 9.40156 0.167391 9.63694 0.40277L19.8494 10.6153C20.4315 11.1958 20.8933 11.8855 21.2083 12.6448C21.5234 13.4041 21.6856 14.2182 21.6856 15.0403C21.6856 15.8623 21.5234 16.6764 21.2083 17.4357C20.8933 18.195 20.4315 18.8847 19.8494 19.4652L9.63694 29.6777C9.52014 29.7936 9.38162 29.8852 9.22932 29.9474C9.07702 30.0097 8.91394 30.0412 8.74944 30.0402Z" fill="white"/>
</g>
<defs>
<clipPath id="clip0_642_1139">
<rect width="30" height="30" fill="white" transform="translate(0 0.0410156)"/>
</clipPath>
</defs>
</svg>
