<svg width="31" height="31" viewBox="0 0 31 31" fill="none" xmlns="http://www.w3.org/2000/svg">
<g clip-path="url(#clip0_542_1746)">
<path d="M25.6719 0.261719H6.17188C3.27238 0.261719 0.921875 2.61222 0.921875 5.51172V25.0117C0.921875 27.9112 3.27238 30.2617 6.17188 30.2617H25.6719C28.5714 30.2617 30.9219 27.9112 30.9219 25.0117V5.51172C30.9219 2.61222 28.5714 0.261719 25.6719 0.261719Z" fill="#007FB5"/>
<path d="M9.36953 11.2969H5.13672V26.6344H9.36953V11.2969Z" fill="white"/>
<path d="M23.5148 11.2957C20.393 10.1051 18.1336 12.1207 17.168 13.2457V11.2957H12.9492V26.6332H17.168V18.5426C17.144 17.5171 17.5187 16.5223 18.2133 15.7676C18.4116 15.5342 18.6558 15.3442 18.9309 15.2095C19.2059 15.0748 19.5058 14.9983 19.8117 14.9847C20.1539 14.9782 20.4939 15.0408 20.8112 15.1689C21.1286 15.297 21.4168 15.4878 21.6586 15.7301C22.1829 16.278 22.4693 17.0109 22.4555 17.7691V26.6332H27.218V17.1363C27.218 17.1363 27.7477 12.8801 23.5148 11.2957Z" fill="white"/>
<path d="M7.24922 9.17813C8.70932 9.17813 9.89297 7.99448 9.89297 6.53438C9.89297 5.07427 8.70932 3.89062 7.24922 3.89062C5.78912 3.89062 4.60547 5.07427 4.60547 6.53438C4.60547 7.99448 5.78912 9.17813 7.24922 9.17813Z" fill="white"/>
</g>
<defs>
<clipPath id="clip0_542_1746">
<rect width="30" height="30" fill="white" transform="translate(0.921875 0.261719)"/>
</clipPath>
</defs>
</svg>
