<svg width="31" height="31" viewBox="0 0 31 31" fill="none" xmlns="http://www.w3.org/2000/svg">
<path d="M15.9211 2.46094C12.4448 2.46094 12.0089 2.47567 10.6436 2.53796C9.28124 2.60016 8.35076 2.8165 7.53654 3.13294C6.69483 3.46006 5.98101 3.89773 5.26942 4.60932C4.55783 5.3209 4.12016 6.03473 3.79305 6.87644C3.47661 7.69061 3.26026 8.62108 3.19807 9.98349C3.13578 11.3487 3.12109 11.7846 3.12109 15.2609C3.12109 18.7372 3.13578 19.173 3.19807 20.5383C3.26026 21.9007 3.47661 22.8312 3.79305 23.6453C4.12016 24.4871 4.55783 25.2009 5.26942 25.9125C5.98101 26.6241 6.69483 27.0618 7.53654 27.3889C8.35076 27.7053 9.28124 27.9217 10.6436 27.9838C12.0089 28.0461 12.4448 28.0608 15.9211 28.0608C19.3973 28.0608 19.8332 28.0461 21.1985 27.9838C22.5609 27.9217 23.4913 27.7053 24.3055 27.3889C25.1472 27.0618 25.861 26.6241 26.5727 25.9125C27.2843 25.2009 27.7219 24.4871 28.049 23.6453C28.3654 22.8312 28.5818 21.9007 28.644 20.5383C28.7063 19.173 28.721 18.7372 28.721 15.2609C28.721 11.7846 28.7063 11.3487 28.644 9.98349C28.5818 8.62108 28.3654 7.69061 28.049 6.87644C27.7219 6.03473 27.2843 5.3209 26.5727 4.60932C25.861 3.89773 25.1472 3.46006 24.3055 3.13294C23.4913 2.8165 22.5609 2.60016 21.1985 2.53796C19.8332 2.47567 19.3973 2.46094 15.9211 2.46094ZM15.9211 4.76728C19.3388 4.76728 19.7436 4.78029 21.0933 4.84187C22.3413 4.89883 23.0191 5.10735 23.4701 5.28259C24.0676 5.51479 24.494 5.79221 24.9418 6.2401C25.3898 6.68798 25.6672 7.11443 25.8993 7.71185C26.0746 8.16288 26.2832 8.84063 26.3401 10.0886C26.4017 11.4383 26.4147 11.8432 26.4147 15.2609C26.4147 18.6786 26.4017 19.0835 26.3401 20.4332C26.2832 21.6812 26.0746 22.3589 25.8993 22.8099C25.6672 23.4074 25.3898 23.8338 24.9418 24.2817C24.494 24.7296 24.0676 25.007 23.4701 25.2392C23.0191 25.4145 22.3413 25.623 21.0933 25.6799C19.7438 25.7415 19.339 25.7546 15.9211 25.7546C12.5031 25.7546 12.0983 25.7415 10.7488 25.6799C9.50079 25.623 8.82304 25.4145 8.372 25.2392C7.77453 25.007 7.34814 24.7296 6.9002 24.2817C6.45232 23.8338 6.1749 23.4074 5.94275 22.8099C5.76746 22.3589 5.55893 21.6812 5.50198 20.4332C5.4404 19.0835 5.42739 18.6786 5.42739 15.2609C5.42739 11.8432 5.4404 11.4383 5.50198 10.0886C5.55893 8.84063 5.76746 8.16288 5.94275 7.71185C6.1749 7.11443 6.45232 6.68798 6.9002 6.2401C7.34814 5.79221 7.77453 5.51479 8.372 5.28259C8.82304 5.10735 9.50079 4.89883 10.7488 4.84187C12.0985 4.78029 12.5033 4.76728 15.9211 4.76728Z" fill="#D9D9D9"/>
<path d="M15.9206 19.5271C13.5642 19.5271 11.654 17.6169 11.654 15.2605C11.654 12.904 13.5642 10.9938 15.9206 10.9938C18.277 10.9938 20.1873 12.904 20.1873 15.2605C20.1873 17.6169 18.277 19.5271 15.9206 19.5271ZM15.9206 8.6875C12.2904 8.6875 9.34766 11.6303 9.34766 15.2605C9.34766 18.8906 12.2904 21.8334 15.9206 21.8334C19.5508 21.8334 22.4935 18.8906 22.4935 15.2605C22.4935 11.6303 19.5508 8.6875 15.9206 8.6875Z" fill="#D9D9D9"/>
<path d="M24.2888 8.42855C24.2888 9.27686 23.6011 9.96452 22.7528 9.96452C21.9045 9.96452 21.2168 9.27686 21.2168 8.42855C21.2168 7.58023 21.9045 6.89258 22.7528 6.89258C23.6011 6.89258 24.2888 7.58023 24.2888 8.42855Z" fill="#D9D9D9"/>
</svg>
