<svg width="128" height="33" viewBox="0 0 128 33" fill="none" xmlns="http://www.w3.org/2000/svg">
<path d="M92.3842 0.980801C87.3183 1.24751 84.0103 2.15748 80.191 4.36964C74.8694 7.4447 73.511 12.6848 77.1866 15.9639C77.9696 16.6385 78.9604 17.219 81.8529 18.6624C86.1997 20.8118 87.2704 21.4393 88.1813 22.4121C88.8365 23.1181 88.8525 23.1495 88.7886 24.0594C88.7087 25.2361 88.1014 26.099 86.9827 26.7266C85.6883 27.4326 84.5057 27.6679 81.7091 27.762C78.1614 27.8876 75.0452 27.6365 69.3241 26.8207C69.1643 26.805 68.8606 27.3855 68.3493 28.7505C67.9338 29.833 67.5822 30.79 67.5822 30.8842C67.5502 31.2136 72.3604 31.9196 76.5953 32.2177C79.9512 32.4531 86.1677 32.3119 88.4689 31.9667C94.3019 31.0724 99.8312 27.9503 101.445 24.6085C102.852 21.6904 102.308 19.0232 99.9111 17.0935C99.3198 16.6228 97.546 15.6344 95.2128 14.4734C91.1537 12.4495 89.4438 11.3983 88.8685 10.5668C88.405 9.89219 88.389 8.8724 88.8205 8.05657C89.9232 5.92286 92.9595 5.18547 99.3198 5.53063C102.037 5.67183 105.68 6.04837 107.678 6.39353L108.237 6.50335L108.94 4.55791C109.324 3.49105 109.675 2.54971 109.707 2.43988C109.803 2.20455 109.579 2.14179 107.278 1.76525C103.187 1.07493 96.9387 0.745464 92.3842 0.980801Z" fill="white"/>
<path d="M5.80131 16.5755C2.63713 25.1888 0.0163006 32.2803 0.000319865 32.3587C-0.0316415 32.4529 2.3335 32.5156 6.24877 32.5156H12.5452L15.6294 24.1847C19.273 14.3791 19.5127 13.9084 22.4532 11.1785C24.5307 9.24873 26.8159 8.32307 29.5326 8.2917C31.1147 8.27601 31.9457 8.58979 32.4411 9.35855C32.6968 9.76647 32.7288 10.0332 32.6648 10.9431C32.6009 11.8845 32.0736 13.4691 28.9254 21.9255C26.9118 27.3539 25.2178 31.9665 25.1539 32.1548L25.0421 32.5156H31.2745C37.1714 32.5156 37.523 32.4999 37.6668 32.2332C37.7627 32.0763 39.121 28.4365 40.7191 24.1377C42.3012 19.8545 43.8034 15.9323 44.0591 15.4459C45.1138 13.3906 48.0702 10.3156 49.8281 9.45269C52.1293 8.32307 55.2935 7.93085 56.6359 8.62117C57.5308 9.09184 57.8824 9.84491 57.7705 11.0059C57.7226 11.6178 56.54 14.9909 53.9192 22.051C51.8417 27.6363 50.1477 32.2332 50.1477 32.2803C50.1477 32.3274 52.9763 32.3587 56.4281 32.3587H62.7085L66.9754 20.9842C70.619 11.2726 71.2582 9.437 71.3381 8.46428C71.6417 4.91854 69.6282 2.3926 65.649 1.34144C64.0349 0.917831 59.5763 0.964899 57.355 1.43557C54.031 2.12589 50.5952 3.44377 47.3671 5.2637L46.1046 5.96971L45.6571 5.05975C44.6663 3.00448 42.3332 1.56108 39.3288 1.13748C34.2789 0.431469 27.8227 2.03176 21.766 5.51473L20.951 5.96971L20.5355 5.05975C19.7524 3.41239 17.659 1.89055 15.4377 1.37281C14.8783 1.2473 13.7917 1.1061 12.9926 1.04334L11.5544 0.949209L5.80131 16.5755Z" fill="white"/>
<path d="M123.498 1.15355C121.197 1.31044 117.937 1.70267 116.099 2.04783L114.677 2.31454L113.878 4.49532C113.446 5.68769 113.126 6.69179 113.158 6.72317C113.19 6.75455 114.053 6.64473 115.076 6.47215C117.505 6.06423 120.925 5.71907 123.834 5.59356L126.183 5.48374L126.343 4.99738C126.422 4.73066 126.79 3.71087 127.158 2.73815L127.797 0.980972L126.566 0.996661C125.895 1.01235 124.505 1.0908 123.498 1.15355Z" fill="white"/>
<path d="M121.662 8.77675C118.162 9.04346 116.5 9.21604 114.407 9.54551C113.048 9.74947 111.914 9.95343 111.882 9.98481C111.786 10.0789 103.684 32.0593 103.684 32.2319C103.684 32.2947 106.512 32.3574 109.964 32.3574H116.228L120.543 20.6534C122.924 14.2052 124.89 8.87088 124.906 8.80813C124.954 8.68261 123.1 8.65124 121.662 8.77675Z" fill="white"/>
</svg>
