<svg width="28" height="28" viewBox="0 0 28 28" fill="none" xmlns="http://www.w3.org/2000/svg">
<path d="M26.32 14.291C26.32 13.381 26.2383 12.506 26.0867 11.666H14V16.6302H20.9067C20.6092 18.2343 19.705 19.5935 18.3458 20.5035V23.7235H22.4933C24.92 21.4893 26.32 18.1993 26.32 14.291Z" fill="#4285F4"/>
<path d="M13.9996 26.8325C17.4646 26.8325 20.3696 25.6833 22.4929 23.7233L18.3454 20.5033C17.1963 21.2733 15.7263 21.7283 13.9996 21.7283C10.6571 21.7283 7.82792 19.4708 6.81875 16.4375H2.53125V19.7625C4.64292 23.9567 8.98292 26.8325 13.9996 26.8325Z" fill="#34A853"/>
<path d="M6.81852 16.438C6.56185 15.668 6.41602 14.8455 6.41602 13.9997C6.41602 13.1538 6.56185 12.3313 6.81852 11.5613V8.23633H2.53102C1.63268 10.0247 1.16522 11.9984 1.16602 13.9997C1.16602 16.0705 1.66185 18.0305 2.53102 19.763L6.81852 16.438Z" fill="#FBBC05"/>
<path d="M13.9996 6.27018C15.8837 6.27018 17.5754 6.91768 18.9054 8.18935L22.5862 4.50852C20.3637 2.43768 17.4587 1.16602 13.9996 1.16602C8.98292 1.16602 4.64292 4.04185 2.53125 8.23602L6.81875 11.561C7.82792 8.52768 10.6571 6.27018 13.9996 6.27018Z" fill="#EA4335"/>
</svg>
