<svg width="83" height="65" viewBox="0 0 83 65" fill="none" xmlns="http://www.w3.org/2000/svg">
<path d="M1.70054 47.0654C-1.44267 49.1591 -0.394935 53.0849 6.24073 54.917C13.051 57.1852 20.5598 57.7959 27.8066 56.5745C28.2432 56.5745 28.5924 56.4001 28.8544 56.4001V49.3336L21.7822 51.6019C19.0755 52.387 16.3688 52.6487 13.6622 52.0381C11.5667 51.4274 12.0033 50.206 14.448 49.1591L28.8544 44.1864V36.5093L8.94738 43.314C6.50266 44.1864 3.97063 45.4078 1.70054 47.0654ZM49.8091 16.0079V36.0731C58.2783 40.1734 64.914 36.0731 64.914 25.3426C64.914 14.3503 60.985 9.37766 49.5472 5.45185C43.5227 3.35809 37.3236 1.52605 31.1245 0.304688V60.1514L45.6182 64.5134V14.1759C45.6182 11.9076 45.6182 10.2501 47.2771 10.8607C49.5472 11.4714 49.8091 13.7397 49.8091 16.0079ZM76.701 42.3544C70.6765 40.2606 64.3028 39.4755 58.0164 40.0862C54.6985 40.2606 51.5553 41.133 48.6741 42.1799L48.0629 42.3544V50.4677L61.5088 45.495C64.2155 44.7099 66.9221 44.4482 69.6288 45.0588C71.7242 45.6695 71.2877 46.8909 68.843 47.9378L48.1502 55.6149V63.4665L76.701 52.9105C78.7965 52.1253 80.63 51.0784 82.2889 49.4208C83.7732 47.3271 83.162 44.3609 76.701 42.3544Z" fill="white"/>
</svg>
