<svg width="170" height="52" viewBox="0 0 170 52" fill="none" xmlns="http://www.w3.org/2000/svg">
<g clip-path="url(#clip0_2436_1426)">
<path d="M38.5127 20.7453H44.2525C44.2525 20.7453 45.5431 16.4854 45.6512 16.1383C45.9195 15.9904 57.8288 9.27724 57.8288 9.27724L59.0685 5.20898H53.3288C53.3288 5.20898 52.8074 6.93551 52.7172 7.24373C52.4527 7.38907 44.0782 12.0913 43.7629 12.2705C43.4895 12.0324 38.5572 7.84012 38.0957 7.44921C38.2496 6.95054 38.7836 5.20898 38.7836 5.20898H33.0323L31.8574 9.10182C31.8574 9.10182 39.4702 15.6007 39.9496 16.0066C39.7537 16.6607 38.5127 20.7453 38.5127 20.7453Z" fill="#E21836"/>
<path d="M86.9207 14.4374L85.002 20.7433H111.034L112.279 16.6462H92.5218C93.7782 16.1175 101.229 13.0378 101.229 13.0378C101.229 13.0378 95.295 9.78021 94.4228 9.30536H114.513L115.761 5.20703H89.7269L87.8666 11.3263C87.8666 11.3263 89.6863 12.3374 90.673 12.9C89.4599 13.3911 86.9207 14.4374 86.9207 14.4374Z" fill="#E21836"/>
<path d="M10.4267 5.20898H4.73143L0 20.7453H5.70671L10.4267 5.20898Z" fill="#E21836"/>
<path d="M30.1933 5.20898H24.9876C24.9876 5.20898 23.4108 10.3861 23.2443 10.9248H10.1893L8.93555 15.0294H22.0033C21.6777 16.0856 20.2587 20.7466 20.2587 20.7466H25.9997L30.7209 5.20898H30.1933Z" fill="#E21836"/>
<path d="M65.5603 9.30856H80.108C80.0331 9.55037 79.7926 10.3284 79.7126 10.5941C79.4583 10.6943 74.9214 12.5787 74.8197 12.615H66.0409L64.7961 16.7121H75.7492L84.7238 12.9984L87.0939 5.20898H61.0742L56.3301 20.7453H62.0762L65.5603 9.30856Z" fill="#E21836"/>
<path d="M115.334 15.5449L113.752 20.7458H119.489C119.489 20.7458 120.468 17.5146 120.693 16.7979C118.965 16.3306 117.185 15.9209 115.334 15.5449Z" fill="#E21836"/>
<path d="M133.805 16.5079C128.062 14.5868 122.057 13.5279 115.994 13.3668L118.474 5.20898H144.511L142.082 13.1826L133.805 16.5079ZM122.978 9.3073C122.914 9.51153 122.723 10.1242 122.527 10.772L122.521 10.7933C122.301 11.5112 122.075 12.2517 121.962 12.615H132.621L133.415 12.283C134.632 11.7743 136.89 10.8296 137.088 10.7532C137.132 10.6066 137.215 10.3309 137.312 10.0014L137.522 9.30355H122.978V9.3073Z" fill="#E21836"/>
<path d="M170 51.3051C166.098 39.8885 160.181 31.7833 153.478 26.0487C159.486 20.2852 163.585 12.4782 164.322 1.91602C164.322 1.91602 161.869 12.4193 148.717 22.4427C129.159 9.32457 105.766 13.0458 105.766 13.0458C119.375 14.0037 132.508 18.3815 143.912 25.7618C131.586 33.4785 112.064 40.1303 81.3027 40.3546C81.3027 40.3546 125.333 46.8923 149.318 29.5217C157.448 35.5386 164.448 42.911 170 51.3051Z" fill="#BBBDBF"/>
</g>
<defs>
<clipPath id="clip0_2436_1426">
<rect width="170" height="50.3791" fill="white" transform="translate(0 0.978516)"/>
</clipPath>
</defs>
</svg>
