<svg width="44" height="44" viewBox="0 0 44 44" fill="none" xmlns="http://www.w3.org/2000/svg">
<path d="M22.018 17.5C28.6452 22.4877 39.921 34.7246 36.4974 38.1634C32.6027 41.5092 27.5459 43.5228 22.018 43.5228C16.49 43.5228 11.3704 41.5092 7.53851 38.1634C4.08354 34.6937 15.3907 22.4567 21.9552 17.531C21.9552 17.5 22.018 17.5 22.018 17.5Z" fill="white"/>
<path d="M33.4816 3.24949C30.1209 1.23582 26.4461 0.0585938 22.0174 0.0585938C17.5888 0.0585938 13.8825 1.23582 10.5218 3.24949C10.459 3.24949 10.459 3.31145 10.459 3.34243C10.459 3.37341 10.5218 3.40439 10.5532 3.40439C14.8248 2.475 21.295 6.09961 21.9232 6.50235H22.0174C22.6142 6.13059 29.0844 2.50598 33.3874 3.40439C33.4502 3.40439 33.4816 3.40439 33.4816 3.34243C33.4816 3.28047 33.5445 3.24949 33.4816 3.24949Z" fill="white"/>
<path d="M6.59585 6.2852C6.53303 6.2852 6.53303 6.34716 6.50163 6.34716C2.4813 10.2816 0 15.7649 0 21.775C0 26.7007 1.69608 31.2857 4.49146 34.9413C4.49146 35.0033 4.55428 35.0033 4.58569 35.0033C4.64851 35.0033 4.64851 34.9413 4.58569 34.9103C2.92102 29.7058 11.527 17.3139 15.9557 12.1403L16.0185 12.0784C16.0185 12.0164 16.0185 12.0164 15.9557 12.0164C9.23419 5.41777 6.97276 6.1303 6.59585 6.2852Z" fill="white"/>
<path d="M28.0491 11.9549L27.9863 12.0169C27.9863 12.0169 27.9863 12.0788 28.0491 12.0788C32.5092 17.2834 41.0524 29.6752 39.4191 34.8178V34.9108C39.482 34.9108 39.5134 34.9108 39.5134 34.8488C42.3088 31.2242 44.0048 26.6082 44.0048 21.6825C44.0048 15.6725 41.5235 10.22 37.4718 6.25466C37.409 6.1927 37.409 6.1927 37.3776 6.1927C37.0321 6.13074 34.802 5.41821 28.0491 11.9549Z" fill="white"/>
</svg>
