<svg width="134" height="28" viewBox="0 0 134 28" fill="none" xmlns="http://www.w3.org/2000/svg">
<g clip-path="url(#clip0_2436_1441)">
<path d="M65.415 0.847656H41.7849C36.3097 0.847656 33.8314 4.126 33.3127 7.29322V0.847656H20.172C18.3277 0.847656 17.4632 1.40331 16.5987 2.62574L13.0254 7.68218H65.415V0.847656ZM0 27.519H9.39441L21.1518 9.18244L12.7372 8.40453L0 27.519ZM74.5213 0.847656H66.7983V7.68218H74.5213V0.847656ZM123.683 11.5162L99.4193 10.127C99.4193 13.6832 101.84 16.1281 105.99 16.4059L123.222 17.6839C124.548 17.795 125.355 18.1284 125.355 19.1842C125.355 20.1844 124.433 20.5733 122.473 20.5733H98.9583V27.519H122.992C130.542 27.519 133.885 24.963 133.885 19.1286C134 13.9055 131.003 11.9607 123.683 11.5162Z" fill="white"/>
<path d="M99.1314 10.127L91.5237 9.68253V17.5172C91.5237 19.9621 90.2557 20.74 85.8178 20.74H79.7086C76.0776 20.74 74.5215 19.7398 74.5215 17.5172V8.96018L66.7985 8.40453V18.184H66.6256C66.1645 15.3502 65.0695 12.0718 57.6922 11.5717L33.4858 10.0159C33.4858 13.5721 36.137 15.7391 40.2867 16.1281L57.1735 17.795C58.4991 17.9062 59.4789 18.2951 59.4789 19.3509C59.4789 20.5177 58.4991 20.6289 56.943 20.6289H33.1976V9.96035L25.4746 9.46027V27.519H57.0006C64.032 27.519 66.2798 24.0184 66.6256 21.0734H66.7985C67.663 25.7409 71.8703 27.519 79.017 27.519H86.8553C95.2122 27.519 99.1314 25.0741 99.1314 19.2953V10.127ZM133.424 7.68218V0.847656H107.431C102.013 0.847656 99.5925 4.07044 99.1314 7.18209C99.1314 7.23766 99.1314 7.23766 99.1314 7.29322V0.847656H91.5237V7.68218H133.424Z" fill="white"/>
</g>
<defs>
<clipPath id="clip0_2436_1441">
<rect width="134" height="26.6713" fill="white" transform="translate(0 0.847656)"/>
</clipPath>
</defs>
</svg>
