<svg width="19" height="19" viewBox="0 0 19 19" fill="none" xmlns="http://www.w3.org/2000/svg">
<path d="M15.1743 13.5832C16.3717 11.983 16.9184 9.98865 16.7045 8.00154C16.4906 6.01443 15.5318 4.18213 14.0213 2.87347C12.5107 1.56482 10.5605 0.876982 8.56315 0.948414C6.56584 1.01985 4.66973 1.84525 3.25651 3.25847C1.84329 4.67168 1.01789 6.56779 0.946461 8.56511C0.875029 10.5624 1.56287 12.5126 2.87152 14.0232C4.18017 15.5338 6.01247 16.4925 7.99958 16.7065C9.98669 16.9204 11.9811 16.3736 13.5813 15.1762L17.4063 19.0012L18.9993 17.4112L15.1743 13.5832ZM8.87426 14.5012C7.76174 14.5012 6.67421 14.1713 5.74918 13.5532C4.82416 12.9352 4.10318 12.0566 3.67744 11.0288C3.2517 10.001 3.14031 8.86998 3.35735 7.77883C3.57439 6.68769 4.11012 5.68541 4.89679 4.89874C5.68346 4.11207 6.68574 3.57634 7.77688 3.3593C8.86802 3.14226 9.99902 3.25365 11.0269 3.6794C12.0547 4.10514 12.9332 4.82611 13.5513 5.75113C14.1694 6.67616 14.4993 7.7637 14.4993 8.87622C14.4979 10.3676 13.9048 11.7976 12.8502 12.8522C11.7956 13.9067 10.3657 14.4998 8.87426 14.5012Z" fill="white"/>
</svg>
