<svg width="18" height="18" viewBox="0 0 18 18" fill="none" xmlns="http://www.w3.org/2000/svg">
<g clip-path="url(#clip0_2436_1454)">
<path d="M15.75 18H13.5V14.25C13.5 13.8522 13.342 13.4706 13.0607 13.1893C12.7794 12.908 12.3978 12.75 12 12.75H6C5.60218 12.75 5.22064 12.908 4.93934 13.1893C4.65804 13.4706 4.5 13.8522 4.5 14.25V18H2.25V14.25C2.25119 13.2558 2.64666 12.3027 3.34966 11.5997C4.05267 10.8967 5.0058 10.5012 6 10.5H12C12.9942 10.5012 13.9473 10.8967 14.6503 11.5997C15.3533 12.3027 15.7488 13.2558 15.75 14.25V18Z" fill="white"/>
<path d="M9 9C8.10999 9 7.23996 8.73608 6.49994 8.24162C5.75991 7.74715 5.18314 7.04434 4.84254 6.22208C4.50195 5.39981 4.41283 4.49501 4.58647 3.6221C4.7601 2.74918 5.18869 1.94736 5.81802 1.31802C6.44736 0.688685 7.24918 0.260102 8.1221 0.0864683C8.99501 -0.0871652 9.89981 0.00194979 10.7221 0.342544C11.5443 0.683138 12.2471 1.25991 12.7416 1.99994C13.2361 2.73996 13.5 3.60999 13.5 4.5C13.4988 5.69311 13.0243 6.83701 12.1807 7.68067C11.337 8.52432 10.1931 8.99881 9 9ZM9 2.25C8.55499 2.25 8.11998 2.38196 7.74997 2.6292C7.37996 2.87643 7.09157 3.22783 6.92127 3.63896C6.75098 4.0501 6.70642 4.5025 6.79324 4.93896C6.88005 5.37541 7.09434 5.77632 7.40901 6.09099C7.72368 6.40566 8.12459 6.61995 8.56105 6.70677C8.99751 6.79359 9.44991 6.74903 9.86104 6.57873C10.2722 6.40843 10.6236 6.12005 10.8708 5.75004C11.118 5.38002 11.25 4.94501 11.25 4.5C11.25 3.90326 11.0129 3.33097 10.591 2.90901C10.169 2.48705 9.59674 2.25 9 2.25Z" fill="white"/>
</g>
<defs>
<clipPath id="clip0_2436_1454">
<rect width="18" height="18" fill="white"/>
</clipPath>
</defs>
</svg>
