<svg width="150" height="21" viewBox="0 0 150 21" fill="none" xmlns="http://www.w3.org/2000/svg">
<path d="M95.7207 0.90625V3.07984H110.226L111.672 0.90625H95.7207Z" fill="#14FF00"/>
<path d="M95.7207 9.69727V11.8709H110.226L111.672 9.69727H95.7207Z" fill="#14FF00"/>
<path d="M95.7207 18.4824V20.656H110.226L111.672 18.4824H95.7207Z" fill="#14FF00"/>
<path d="M143.583 7.02616V5.77339C143.583 5.13423 143.438 4.50133 143.156 3.91083C142.874 3.32032 142.46 2.78376 141.939 2.33181C141.417 1.87986 140.798 1.52134 140.117 1.27675C139.435 1.03215 138.705 0.90625 137.968 0.90625H127.625V20.6628H130.133V11.8933H134.831L140.685 20.6628H143.576L137.722 11.8933H137.96C138.698 11.8941 139.429 11.7688 140.112 11.5246C140.794 11.2804 141.414 10.922 141.936 10.4699C142.458 10.0179 142.873 9.48109 143.155 8.89017C143.438 8.29926 143.583 7.66585 143.583 7.02616ZM130.133 3.07988H137.968C138.791 3.08154 139.581 3.36585 140.163 3.87062C140.745 4.37539 141.074 5.05954 141.075 5.77339V7.02616C141.074 7.74002 140.745 8.42416 140.163 8.92893C139.581 9.43371 138.791 9.71802 137.968 9.71967H130.133V3.07988Z" fill="#14FF00"/>
<path d="M15.9584 7.02616V5.77339C15.9584 5.13423 15.8131 4.50133 15.5309 3.91083C15.2487 3.32032 14.835 2.78376 14.3136 2.33181C13.7921 1.87986 13.173 1.52134 12.4917 1.27675C11.8103 1.03215 11.0801 0.90625 10.3426 0.90625H0V20.6628H2.50795V11.8933H7.22753L13.0818 20.6628H15.9728L10.1185 11.8933H10.357C11.8439 11.89 13.2686 11.3757 14.3187 10.4633C15.3687 9.5509 15.9584 8.31483 15.9584 7.02616ZM2.50795 3.07988H10.3426C11.1663 3.08154 11.9556 3.36585 12.5381 3.87062C13.1205 4.37539 13.4485 5.05954 13.4504 5.77339V7.02616C13.4485 7.74002 13.1205 8.42416 12.5381 8.92893C11.9556 9.43371 11.1663 9.71802 10.3426 9.71967H2.50795V3.07988Z" fill="#14FF00"/>
<path d="M39.8465 6.70667L46.3513 20.6565H49.0544L41.1981 3.80646L39.8465 0.90625L38.495 3.80646L30.6387 20.6565H33.3418L39.8465 6.70667Z" fill="#14FF00"/>
<path d="M145.584 0.90625H147.181V1.18188H146.567V2.82304H146.206V1.18188H145.584V0.90625Z" fill="#14FF00"/>
<path d="M147.795 0.914062H148.409L148.886 2.41115L149.378 0.914062H149.999V2.82456H149.645V1.2523H149.609L149.089 2.74942H148.72L148.164 1.2523V2.82456H147.809L147.795 0.914062Z" fill="#14FF00"/>
<path d="M63.8125 0.90625V3.07984H75.5283L65.2652 18.4829L63.8125 20.6565H66.7107H78.4121L79.8576 18.4829H68.1562L78.4193 3.07984L79.8648 0.90625H76.9738H63.8125Z" fill="#14FF00"/>
<path d="M95.7207 0.90625V3.07984H110.226L111.672 0.90625H95.7207Z" fill="#14FF00"/>
<path d="M95.7207 9.69727V11.8709H110.226L111.672 9.69727H95.7207Z" fill="#14FF00"/>
<path d="M95.7207 18.4824V20.656H110.226L111.672 18.4824H95.7207Z" fill="#14FF00"/>
<path d="M39.8465 6.70667L46.3513 20.6565H49.0544L41.1981 3.80646L39.8465 0.90625L38.495 3.80646L30.6387 20.6565H33.3418L39.8465 6.70667Z" fill="#14FF00"/>
</svg>
