<svg width="33" height="33" viewBox="0 0 33 33" fill="none" xmlns="http://www.w3.org/2000/svg">
<g clip-path="url(#clip0_542_1744)">
<path d="M32.9158 6.33872C31.7388 6.86172 30.4748 7.21472 29.1458 7.37172C30.5008 6.55972 31.5418 5.27372 32.0328 3.74172C30.7638 4.49272 29.3598 5.04072 27.8648 5.33372C26.6668 4.05872 24.9608 3.26172 23.0718 3.26172C19.4468 3.26172 16.5098 6.19972 16.5098 9.82472C16.5098 10.3387 16.5668 10.8407 16.6788 11.3207C11.2238 11.0467 6.38783 8.43372 3.14983 4.46272C2.58583 5.43272 2.26183 6.55972 2.26183 7.76272C2.26183 10.0407 3.42083 12.0487 5.18083 13.2267C4.10583 13.1917 3.09383 12.8977 2.20883 12.4057C2.20783 12.4327 2.20783 12.4617 2.20783 12.4877C2.20783 15.6687 4.46983 18.3217 7.47283 18.9247C6.92283 19.0737 6.34283 19.1547 5.74383 19.1547C5.31983 19.1547 4.90983 19.1137 4.50983 19.0377C5.34383 21.6437 7.76883 23.5417 10.6398 23.5957C8.39483 25.3557 5.56483 26.4067 2.48983 26.4067C1.95983 26.4067 1.43683 26.3757 0.923828 26.3147C3.82783 28.1747 7.27783 29.2617 10.9848 29.2617C23.0568 29.2617 29.6598 19.2607 29.6598 10.5867C29.6598 10.3027 29.6518 10.0187 29.6398 9.73672C30.9228 8.81172 32.0348 7.65672 32.9158 6.33872Z" fill="#55ACEE"/>
</g>
<defs>
<clipPath id="clip0_542_1744">
<rect width="32" height="32" fill="white" transform="translate(0.921875 0.261719)"/>
</clipPath>
</defs>
</svg>
