<svg width="33" height="33" viewBox="0 0 33 33" fill="none" xmlns="http://www.w3.org/2000/svg">
<g clip-path="url(#clip0_542_1752)">
<path d="M16.9219 32.2617C25.7584 32.2617 32.9219 25.0983 32.9219 16.2617C32.9219 7.42516 25.7584 0.261719 16.9219 0.261719C8.08532 0.261719 0.921875 7.42516 0.921875 16.2617C0.921875 25.0983 8.08532 32.2617 16.9219 32.2617Z" fill="#3B5998"/>
<path d="M22.9219 32.2617V20.2617H26.9219L27.9219 15.2617H22.9219V13.2617C22.9219 11.2617 23.9239 10.2617 25.9219 10.2617H27.9219V5.26172C26.9219 5.26172 25.6819 5.26172 23.9219 5.26172C20.2469 5.26172 17.9219 8.14272 17.9219 12.2617V15.2617H13.9219V20.2617H17.9219V32.2617H22.9219Z" fill="white"/>
</g>
<defs>
<clipPath id="clip0_542_1752">
<rect width="32" height="32" fill="white" transform="translate(0.921875 0.261719)"/>
</clipPath>
</defs>
</svg>
