<svg width="124" height="33" viewBox="0 0 124 33" fill="none" xmlns="http://www.w3.org/2000/svg">
<path d="M34.2012 0.98195V8.94647H45.8684L33.5274 32.5909H60.134V24.5707H47.821L60.4008 0.983432L34.2012 0.98195ZM29.2592 32.589V0.98195H20.0489V16.6608L9.16812 0.98195H0V32.589H9.21024V15.9511L20.723 32.589H29.2592ZM79.1993 24.5551L84.4082 32.589H95.1346L84.675 16.6322L94.9523 0.981104H84.8434L79.3398 9.09844L74.1591 0.981104H63.4467L73.8504 16.9241L63.6013 32.589H74.061L79.1993 24.5551ZM124 0.980469H97.4787V9.3065H105.847V32.589H115.632V9.3065H124L124 0.980469Z" fill="white"/>
</svg>
