<svg width="99" height="28" viewBox="0 0 99 28" fill="none" xmlns="http://www.w3.org/2000/svg">
<path d="M24.9141 27.1595H20.3912L12.5704 16.5335L4.71818 27.1905H0.195312L10.2461 13.4666L1.01194 0.857873H5.53481L12.5704 10.3996L19.606 0.857873H24.1288L14.8318 13.4666L24.9141 27.1595ZM48.4707 19.6935C48.4707 21.9859 47.6854 23.8447 46.1464 25.1459C44.6074 26.447 42.3774 27.1595 39.5192 27.1595H27.0813V15.4183H21.1136L23.5949 12.0415H27.0813V0.857873H39.048C41.7492 0.857873 43.8222 1.50844 45.2356 2.77861C46.6804 4.04877 47.4028 5.72167 47.4028 7.73534C47.4028 10.2447 46.2406 12.1964 43.9164 13.4666C45.424 14.0242 46.5233 14.8916 47.2771 15.9139C48.0938 16.9673 48.4707 18.2684 48.4707 19.6935ZM31.1016 12.1035H38.7339C40.273 12.1035 41.4351 11.7627 42.2203 11.0811C43.0055 10.4306 43.3824 9.37726 43.3824 8.01416C43.3824 6.86791 43.0055 5.93852 42.1575 5.28795C41.3723 4.63738 40.2101 4.29661 38.7339 4.29661H31.1016V12.1035ZM44.3875 19.5695C44.3875 18.2064 43.9478 17.1222 43.0998 16.4716C42.2831 15.7591 40.9954 15.4493 39.3307 15.4493H31.0702V23.6588H39.2679C40.8697 23.6588 42.1575 23.2871 43.0369 22.6365C43.9478 21.924 44.3875 20.9017 44.3875 19.5695ZM75.922 14.0242C75.922 16.0379 75.6393 17.9586 75.0425 19.6005C74.4457 21.2424 73.5349 22.6985 72.3728 23.9686C71.1478 25.2388 69.7658 26.1992 68.2268 26.8188C66.6878 27.4693 64.8975 27.7481 62.9187 27.7481C60.9714 27.7481 59.1497 27.4074 57.6106 26.8188C56.0716 26.1682 54.6896 25.2388 53.4647 23.9686C52.2397 22.6985 51.3603 21.2424 50.7635 19.6005C50.1667 17.9586 49.8841 16.0379 49.8841 14.0242C49.8841 12.0105 50.1667 10.0898 50.7635 8.44787C51.3603 6.80595 52.2711 5.28795 53.4647 4.01779C54.6268 2.74763 56.0088 1.84922 57.6106 1.16767C59.1497 0.579057 60.9714 0.238281 62.9187 0.238281C64.8661 0.238281 66.625 0.579057 68.2268 1.16767C69.7658 1.75628 71.2106 2.74763 72.3728 4.01779C73.5349 5.28795 74.4772 6.80595 75.0425 8.44787C75.6079 10.0898 75.922 11.9486 75.922 14.0242ZM54.0614 14.0242C54.0614 17.1222 54.8781 19.6005 56.5113 21.3973C58.1132 23.1941 60.2176 24.1235 62.9187 24.1235C65.5885 24.1235 67.7243 23.1941 69.3261 21.3973C70.928 19.6005 71.7132 17.1531 71.7132 14.0242C71.7132 10.8953 70.928 8.41689 69.3261 6.5891C67.7243 4.79228 65.5571 3.86289 62.9187 3.86289C60.2804 3.86289 58.1132 4.79228 56.5113 6.5891C54.9095 8.44787 54.0614 10.8953 54.0614 14.0242ZM88.7682 13.4666L98.0652 0.857873H93.5423L86.5067 10.3996L79.4712 0.857873H74.9483L84.2453 13.4666L74.1631 27.1595H78.7174L86.5067 16.5335L94.3589 27.1905H98.8818L88.7682 13.4666Z" fill="white"/>
</svg>
