<svg width="45" height="32" viewBox="0 0 45 32" fill="none" xmlns="http://www.w3.org/2000/svg">
<path d="M3.5391 0.738281H25.7165C26.6256 0.738281 27.4975 1.11274 28.1403 1.77928C28.7831 2.44583 29.1442 3.34985 29.1442 4.29249V4.61627H38.7249C39.0733 4.61801 39.4144 4.72008 39.7101 4.91108C40.0058 5.10208 40.2446 5.37451 40.3997 5.69798L43.9126 13.1302C44.0406 13.3953 44.1085 13.6873 44.1113 13.9838V25.5C44.1113 25.8903 43.9618 26.2647 43.6956 26.5407C43.4294 26.8167 43.0684 26.9717 42.692 26.9717H40.7687C40.5525 28.2788 39.8975 29.4646 38.9197 30.3194C37.9418 31.1743 36.7039 31.6431 35.4249 31.6431C34.1459 31.6431 32.908 31.1743 31.9301 30.3194C30.9522 29.4646 30.2973 28.2788 30.081 26.9717H15.1778C14.9615 28.2788 14.3066 29.4646 13.3287 30.3194C12.3508 31.1743 11.113 31.6431 9.83393 31.6431C8.5549 31.6431 7.31705 31.1743 6.33916 30.3194C5.36128 29.4646 4.70632 28.2788 4.49006 26.9717H2.02749C1.52539 26.9718 1.04331 26.7675 0.684971 26.4029C0.32663 26.0382 0.120655 25.5422 0.111359 25.0217V4.30721C0.109489 3.83922 0.19677 3.37547 0.368195 2.94255C0.539619 2.50963 0.791809 2.11608 1.11029 1.78448C1.42877 1.45288 1.80727 1.18977 2.22408 1.01023C2.64088 0.830695 3.08777 0.738277 3.5391 0.738281ZM38.1146 7.57443H29.1442V12.3943H40.3997L38.1146 7.57443ZM35.4249 28.701C35.9392 28.7024 36.4424 28.5455 36.8706 28.2502C37.2988 27.9548 37.6328 27.5342 37.8303 27.0418C38.0278 26.5494 38.0798 26.0072 37.9798 25.4841C37.8798 24.961 37.6323 24.4804 37.2686 24.1033C36.9049 23.7262 36.4415 23.4696 35.937 23.3659C35.4325 23.2622 34.9096 23.3162 34.4347 23.5209C33.9598 23.7257 33.5542 24.072 33.2693 24.516C32.9845 24.9601 32.8332 25.4818 32.8346 26.0151C32.8364 26.7268 33.1099 27.4089 33.5953 27.9122C34.0807 28.4154 34.7385 28.699 35.4249 28.701ZM35.4249 20.3784C36.5327 20.3809 37.6133 20.7347 38.5216 21.3924C39.4299 22.05 40.1224 22.9801 40.5062 24.0577H41.2726V15.3378H29.1442V24.0283H30.3436C30.7297 22.9534 31.4232 22.0265 32.3313 21.3716C33.2394 20.7167 34.3187 20.365 35.4249 20.3637V20.3784ZM9.84103 28.701C10.3554 28.7024 10.8585 28.5455 11.2867 28.2502C11.715 27.9548 12.049 27.5342 12.2465 27.0418C12.4439 26.5494 12.496 26.0072 12.396 25.4841C12.296 24.961 12.0485 24.4804 11.6848 24.1033C11.3211 23.7262 10.8576 23.4696 10.3531 23.3659C9.8486 23.2622 9.32576 23.3162 8.85086 23.5209C8.37595 23.7257 7.97036 24.072 7.68549 24.516C7.40063 24.9601 7.24931 25.4818 7.25071 26.0151C7.25258 26.7268 7.52609 27.4089 8.01147 27.9122C8.49684 28.4154 9.15461 28.699 9.84103 28.701ZM2.95007 24.0283H4.75974C5.14422 22.9511 5.83765 22.0219 6.74672 21.3657C7.65579 20.7095 8.7369 20.3577 9.84458 20.3577C10.9523 20.3577 12.0334 20.7095 12.9424 21.3657C13.8515 22.0219 14.5449 22.9511 14.9294 24.0283H26.2842V4.30721C26.2824 4.14581 26.2198 3.99157 26.1097 3.87744C25.9996 3.76331 25.8509 3.69835 25.6952 3.69644H3.5391C3.38345 3.69835 3.2347 3.76331 3.12463 3.87744C3.01456 3.99157 2.95191 4.14581 2.95007 4.30721V24.0283Z" fill="#0D2612"/>
</svg>
