<svg width="124" height="42" viewBox="0 0 124 42" fill="none" xmlns="http://www.w3.org/2000/svg">
<path d="M36.1157 25.103C35.1107 25.103 34.1284 24.7599 33.2929 24.117C32.4573 23.4742 31.806 22.5605 31.4214 21.4915C31.0367 20.4225 30.9363 19.2463 31.1324 18.1115C31.3284 16.9766 31.8123 15.9342 32.5229 15.1161C33.2336 14.2979 34.1388 13.7407 35.1246 13.515C36.1101 13.2892 37.1319 13.4051 38.0602 13.8479C38.9889 14.2907 39.7822 15.0405 40.3405 16.0026C40.8988 16.9646 41.1969 18.0957 41.1969 19.2528C41.2049 20.0236 41.0789 20.7884 40.8264 21.5023C40.5738 22.2162 40.1999 22.8648 39.7265 23.4099C39.2531 23.955 38.6896 24.3855 38.0697 24.6763C37.4496 24.9671 36.7852 25.1121 36.1157 25.103ZM45.4312 13.1783V9.1514H39.2689C38.2558 8.73933 37.1903 8.52512 36.1157 8.51763C30.7976 8.51763 26.6139 13.1783 26.6139 19.2593C26.6139 25.3402 30.7976 30.0008 36.1157 30.0008C41.4341 30.0008 45.6148 25.3402 45.6148 19.2755C45.6148 17.2215 45.1348 15.2064 44.1751 13.7081L45.4312 13.1783ZM15.6048 25.103C14.5999 25.103 13.6175 24.7599 12.7819 24.117C11.9463 23.4742 11.295 22.5605 10.9104 21.4915C10.5259 20.4225 10.4252 19.2463 10.6213 18.1115C10.8173 16.9766 11.3013 15.9342 12.0119 15.1161C12.7225 14.2979 13.6279 13.7407 14.6135 13.515C15.5992 13.2892 16.6208 13.4051 17.5493 13.8479C18.4778 14.2907 19.2713 15.0405 19.8297 16.0026C20.388 16.9646 20.686 18.0957 20.686 19.2528C20.6939 20.0236 20.5679 20.7884 20.3154 21.5023C20.0629 22.2162 19.6889 22.8648 19.2155 23.4099C18.7421 23.955 18.1787 24.3855 17.5587 24.6763C16.9386 24.9671 16.2743 25.1121 15.6048 25.103ZM15.6048 8.5274C10.2894 8.5274 6.10588 13.1881 6.10588 19.269C6.10588 25.35 10.2894 30.0008 15.6048 30.0008C20.9203 30.0008 25.1039 25.3402 25.1039 19.2755C25.1039 13.2108 20.9203 8.55015 15.6048 8.55015V8.5274ZM0 29.4061H4.38956V0.580867H0V29.4061ZM47.365 29.4061H51.7545V9.1514H47.365V29.4061ZM36.1157 36.5953C35.4516 36.6039 34.7925 36.46 34.1775 36.1712C33.5625 35.8825 33.0037 35.4553 32.5339 34.9146C32.0644 34.3739 31.6931 33.7304 31.4425 33.0223C31.1917 32.3142 31.0667 31.5554 31.0742 30.7908H26.6139C26.6139 36.8715 30.7976 41.516 36.1157 41.516C41.4341 41.516 45.6148 36.8587 45.6148 30.7908H41.1575C41.165 31.5554 41.0397 32.3142 40.7891 33.0223C40.5383 33.7304 40.1673 34.3739 39.6975 34.9146C39.228 35.4553 38.6692 35.8825 38.0542 36.1712C37.4389 36.46 36.7799 36.6039 36.1157 36.5953ZM67.9069 17.1662C68.4912 14.4816 70.2725 12.9801 72.5703 12.9801C74.8681 12.9801 76.5844 14.4426 77.1321 17.1662H67.9069ZM72.6747 8.51763C67.3933 8.51763 63.3792 13.1783 63.3792 19.3763C63.3792 25.4995 67.0488 30.0008 72.7426 30.0008C75.8984 30.0008 78.71 28.6554 80.7679 26.13L77.8181 22.7791C76.3784 24.3587 74.8343 25.506 72.8469 25.506C70.4448 25.506 68.6267 23.9264 68.0115 21.2808H81.6938V20.049C81.6938 13.1393 77.9904 8.51763 72.6747 8.51763ZM111.532 8.51763C110.539 8.49343 109.554 8.70884 108.638 9.14996C107.723 9.59107 106.898 10.2481 106.216 11.0787V0.580867H101.826V29.4061H106.216V18.3915C106.216 15.4664 107.828 13.4546 110.504 13.4546C113.008 13.4546 114.38 15.2324 114.38 18.3915V29.4061H118.77V17.4814C118.77 11.875 115.718 8.51763 111.532 8.51763ZM92.5901 13.4156C94.4419 13.4156 95.9522 14.5206 97.1068 16.0612L100.158 12.5868C99.2548 11.2988 98.1094 10.2635 96.8083 9.55875C95.5073 8.85394 94.0843 8.49797 92.6465 8.51763C87.3311 8.51763 83.1477 13.1783 83.1477 19.2593C83.1477 25.3402 87.3311 30.0008 92.6465 30.0008C94.0882 30.0245 95.5155 29.6706 96.8207 28.9656C98.1259 28.2605 99.275 27.2232 100.181 25.9317L97.1292 22.4541C96.0002 23.9557 94.4531 25.0997 92.5675 25.0997C89.7447 25.0997 87.5936 22.5711 87.5936 19.2495C87.5936 15.9279 89.7532 13.3993 92.6015 13.3993L92.5901 13.4156ZM60.4095 2.9112H56.0058V9.1514H53.6346V13.6528H56V29.4061H60.4095V13.6528H62.8116V9.1514H60.4095V2.9112ZM49.5244 0.0283466C49.1424 0.0256774 48.7639 0.110986 48.4109 0.279254C48.0579 0.447521 47.7377 0.695354 47.4691 1.00817C47.2008 1.32098 46.9891 1.69247 46.8473 2.10077C46.7052 2.50908 46.6354 2.94595 46.6422 3.3857C46.6422 4.27615 46.9495 5.13009 47.4964 5.75972C48.0433 6.38937 48.785 6.74308 49.5584 6.74308C50.3316 6.74308 51.0733 6.38937 51.6202 5.75972C52.1671 5.13009 52.4744 4.27615 52.4744 3.3857C52.4795 2.93991 52.4063 2.49749 52.2593 2.08497C52.1126 1.67244 51.8949 1.29826 51.6195 0.984822C51.3441 0.671382 51.0166 0.425126 50.6566 0.26078C50.2965 0.0964355 49.9117 0.017381 49.5244 0.0283466ZM120.474 7.1786H121.126L121.844 8.53389H122.301L121.519 7.10384C121.623 7.09844 121.725 7.06837 121.819 7.01549C121.912 6.96261 121.995 6.88807 122.062 6.79652C122.129 6.70499 122.18 6.59843 122.21 6.48354C122.239 6.36863 122.248 6.24786 122.236 6.1288C122.236 5.37479 121.779 5.07577 121.126 5.07577H120.082V8.53063H120.474V7.1786ZM120.474 5.52755H121.126C121.649 5.52755 121.844 5.75181 121.844 6.1288C121.844 6.50582 121.649 6.73008 121.126 6.73008H120.474V5.52755ZM121.126 10.1849C121.698 10.1779 122.256 9.97664 122.728 9.60644C123.201 9.23628 123.569 8.7136 123.785 8.104C124.001 7.49436 124.056 6.82492 123.943 6.1795C123.83 5.53412 123.554 4.9415 123.149 4.47596C122.745 4.0104 122.23 3.69261 121.67 3.56243C121.109 3.43226 120.528 3.49546 119.998 3.74415C119.469 3.99283 119.015 4.41593 118.693 4.96041C118.372 5.50485 118.197 6.14648 118.191 6.80484C118.188 7.24952 118.262 7.69047 118.408 8.10193C118.555 8.51342 118.771 8.88721 119.044 9.20152C119.317 9.51584 119.642 9.76438 120 9.93264C120.357 10.1009 120.74 10.1856 121.126 10.1817V10.1849ZM121.126 3.94797C121.779 3.97314 122.397 4.2891 122.85 4.82912C123.304 5.36914 123.558 6.09099 123.558 6.84221C123.558 7.59343 123.304 8.31528 122.85 8.8553C122.397 9.39532 121.779 9.71128 121.126 9.73642C120.789 9.74945 120.453 9.68421 120.138 9.54463C119.824 9.40504 119.536 9.19392 119.294 8.92388C119.051 8.65385 118.858 8.3304 118.727 7.97276C118.595 7.61515 118.527 7.23067 118.527 6.84221C118.527 6.45375 118.595 6.06927 118.727 5.71166C118.858 5.35402 119.051 5.03055 119.294 4.76051C119.536 4.49047 119.824 4.27938 120.138 4.13979C120.453 4.00021 120.789 3.93497 121.126 3.94797Z" fill="white"/>
</svg>
